<svg xmlns="http://www.w3.org/2000/svg" height="800" width="1200" viewBox="-5.4 -9 46.8 54"><g fill-rule="evenodd" fill="none"><path fill="#0042e6" d="M13.1912 0h9.6176c4.5869 0 6.2502.4776 7.927 1.3744 1.677.8968 2.993 2.2128 3.8898 3.8897C35.5224 6.9411 36 8.6043 36 13.1911v9.6177c0 4.5869-.4776 6.2502-1.3744 7.927-.8968 1.677-2.2128 2.993-3.8897 3.8898-1.677.8968-3.3402 1.3744-7.927 1.3744h-9.6177c-4.5869 0-6.2502-.4776-7.927-1.3744-1.677-.8968-2.993-2.2128-3.8898-3.8897C.4776 29.0589 0 27.3957 0 22.8089v-9.6177c0-4.5869.4776-6.2502 1.3744-7.927.8968-1.677 2.2128-2.993 3.8897-3.8898C6.9411.4776 8.6043 0 13.1911 0z"/><path d="M24.3348 26.307l-1.535-1.9744c-.1143-.147-.3102-.2358-.5205-.2358h-7.5586c-.2103 0-.4062.0887-.5205.2358l-1.5348 1.9741c-.0487.0626-.0745.1355-.0745.21v.3014c0 .1005.084.1819.1876.1819h11.443c.1036 0 .1876-.0814.1876-.182v-.3012a.34.34 0 00-.0743-.2098m-2.9885-10.3596c0-4.3584-.7694-6.165-2.8847-6.165-1.8655 0-2.8078 1.2664-2.8078 5.6622 0 4.3398.7308 6.1279 2.8847 6.1279 1.9039 0 2.8078-1.248 2.8078-5.625M12 15.8357C12 10.937 15.4808 9 18.577 9 21.8847 9 25 10.9185 25 15.5377c0 4.9358-3.4807 6.8171-6.577 6.8171-3.3076 0-6.423-2.0488-6.423-6.519" fill="#FFF"/></g></svg>